/* XPM */
static char * logo_xpm[] = {
"150 30 12 1",
" 	c None",
".	c #000066",
"+	c #666699",
"@	c #FFFFFF",
"#	c #555599",
"$	c #AAAACC",
"%	c #1C1C76",
"&	c #383887",
"*	c #8D8DBA",
"=	c #E2E2ED",
"-	c #7171A9",
";	c #C6C6DC",
"......................................................................................................................................................",
".....................................................................................................................................................+",
"....................................................................................................................................................++",
"...................................................................................................................................................+++",
"..................................................................................................................................................++++",
".................................................................................................................................................+++++",
"................................@@@..#@@$...............................@@@...............................$@@#..................................++++++",
"................................@@@..#@@$...............................@@@...............................$@@#.................................+++++++",
"................................$$$..#@@$...............................@@@...............................$@@#................................++++++++",
"......................%##%...........#@@$.%##%........&##...........%#..@@@..##&......................##%.$@@#.....&##.......................+++++++++",
"........@@@@@@@@@...%$@@@@$%....@@@..#@@$#@@@@*.....&=@@@@-....$@@##@@..@@@%=@@@;%...$@@#....@@@....-@@@@$$@@#...&=@@@@-....................++++++++++",
"........@@@@@@@@@...=@@@@@@=%...@@@..#@@=@@@@@@$...&@@@@@@@$...$@@*@@@..@@@=@@@@@=%..$@@#....@@@...-@@@@@@@@@#..&@@@@@@@$..................+++++++++++",
"........#####=@@=..*@@$.%=@@*...@@@..#@@@=&.-@@@&..=@@#.#@@@&..$@@@@$;..@@@@-.&=@@*..$@@#....@@@..%@@@-.&=@@@#..=@@#.#@@@&................++++++++++++",
"............$@@@%..@@@...%@@@%..@@@..#@@@&...;@@*.#@@$...-@@;..$@@@%....@@@*...-@@=..$@@#....@@@..*@@*...#@@@#.#@@$...-@@;...............+++++++++++++",
"...........#@@@#..#@@$....$@@#..@@@..#@@=....#@@;.$@@#....@@@..$@@*.....@@@&....@@@%.$@@#....@@@..;@@&....=@@#.$@@#....@@@..............++++++++++++++",
"..........&@@@*...#@@@@@;$=@@#..@@@..#@@$.....@@@.$@@@@@$$@@@..$@@#.....@@@.....$@@#.$@@#....@@@..@@@.....$@@#.$@@@@@$$@@@.............+++++++++++++++",
".........%=@@;....$@@@@@@@@@@$..@@@..#@@$.....@@@.@@@@@@@@@@@#.$@@#.....@@@.....$@@#.$@@#....@@@..@@@.....$@@#.@@@@@@@@@@@#...........++++++++++++++++",
".........;@@=%....-@@$...####&..@@@..#@@;....%@@@.;@@#..%####%.$@@#.....@@@%....;@@#.$@@#....@@@..@@@%....;@@#.;@@#..%####%..........+++++++++++++++++",
"........$@@@&.....#@@;....&##%..@@@..#@@@%...-@@$.$@@-....###..$@@#.....@@@-...%@@@..$@@#...&@@@..$@@-...%@@@#.$@@-....###..........++++++++++++++++++",
".......#@@@$#####%.@@@#..#@@@%..@@@..#@@@$%.#@@@&.#@@=%..$@@;..$@@#.....@@@=&.%=@@*..*@@=%.%=@@@..#@@@&.%;@@@#.#@@=%..$@@;.........+++++++++++++++++++",
".......$@@@@@@@@@#.-@@@@@@@@#...@@@..#@@@@@@@@@$...;@@@@@@@=%..$@@#.....@@@@@@@@@=%..&@@@@@@=@@@...;@@@@@@@@@#..;@@@@@@@=%........++++++++++++++++++++",
".......$@@@@@@@@@#..*@@@@@=#....@@@..#@@;=@@@@$....%;@@@@@;%...$@@#.....@@@$@@@@=%....$@@@@=%@@@...%;@@@@$$@@#..%;@@@@@;%........+++++++++++++++++++++",
".....................%#-##................#-#&.......&#-#&..................&#-#.......&#-#..........&-#&.........&#-#&.........++++++++++++++++++++++",
"...............................................................................................................................+++++++++++++++++++++++",
"..............................................................................................................................++++++++++++++++++++++++",
".............................................................................................................................+++++++++++++++++++++++++",
"............................................................................................................................++++++++++++++++++++++++++",
"...........................................................................................................................+++++++++++++++++++++++++++",
"..........................................................................................................................++++++++++++++++++++++++++++",
".........................................................................................................................+++++++++++++++++++++++++++++"};
